<svg version="1.0" xmlns="http://www.w3.org/2000/svg"
 width="40.000000pt" height="25.000000pt" viewBox="0 0 2094.000000 1306.000000"
 preserveAspectRatio="xMidYMid meet">

<g transform="translate(0.000000,1306.000000) scale(0.100000,-0.100000)"
fill="#000000" stroke="none" stroke-opacity="0">
<path d="M7026 9688 c-30 -51 -887 -1521 -1904 -3265 l-1850 -3173 1296 0
1297 0 406 698 407 697 826 3 826 2 0 -700 0 -701 1203 4 c1295 4 1248 2 1537
58 479 92 948 300 1335 592 127 96 190 152 338 296 l137 135 0 -542 0 -542
1110 0 1110 0 0 699 0 698 125 7 c649 36 1237 297 1691 750 401 402 649 904
731 1481 23 158 22 513 -1 670 -86 593 -342 1098 -762 1505 -402 390 -916 636
-1474 705 -106 13 -306 15 -1327 15 l-1203 0 0 -540 0 -540 -117 117 c-274
275 -553 472 -905 643 -305 147 -581 232 -953 293 -129 21 -143 21 -1977 24
l-1847 4 -55 -93z m3744 -740 c443 -68 802 -217 1146 -474 479 -358 821 -903
934 -1490 11 -58 20 -107 20 -110 0 -2 187 -4 415 -4 l415 0 0 1051 0 1050
798 -4 c761 -4 802 -5 909 -25 720 -137 1273 -684 1413 -1397 27 -141 37 -374
21 -515 -49 -423 -226 -781 -533 -1075 -240 -231 -523 -380 -864 -456 -93 -21
-131 -23 -629 -28 l-530 -6 -3 -697 -2 -698 -290 0 -290 0 0 700 0 700 -519 0
-519 0 -57 -107 c-187 -354 -466 -660 -810 -891 -302 -203 -713 -352 -1077
-391 -59 -7 -385 -11 -833 -11 l-735 0 0 700 0 700 -1468 0 -1468 0 -408 -700
-408 -700 -339 0 c-187 0 -338 3 -336 8 2 4 644 1106 1427 2450 l1423 2443
1546 -4 c1361 -3 1559 -5 1651 -19z"/>
<path d="M8330 7625 l0 -755 -649 0 -649 0 -236 -405 c-130 -222 -236 -407
-236 -410 0 -3 583 -5 1295 -5 l1295 0 0 1165 0 1165 -410 0 -410 0 0 -755z"/>
<path d="M9730 7976 l0 -406 388 0 c499 0 581 -11 778 -105 219 -105 388 -277
500 -508 66 -137 85 -224 91 -403 8 -216 -21 -346 -115 -527 -135 -259 -373
-447 -670 -530 -72 -20 -107 -21 -522 -27 l-445 -5 -3 -407 -2 -408 399 0
c219 0 445 5 502 10 126 13 302 51 418 91 129 45 374 170 480 246 487 350 780
918 781 1515 1 891 -610 1641 -1495 1835 -119 26 -126 26 -602 30 l-483 4 0
-405z"/>
<path d="M14280 7975 l0 -404 453 -3 452 -3 57 -27 c73 -34 142 -103 176 -176
23 -49 27 -70 27 -147 -1 -77 -5 -98 -28 -146 -32 -66 -108 -141 -175 -172
-46 -21 -61 -22 -502 -27 l-455 -5 -3 -408 -2 -408 497 3 498 4 96 26 c306 83
530 239 697 485 199 293 250 677 136 1023 -114 343 -390 618 -739 734 -154 52
-208 56 -716 56 l-469 0 0 -405z"/>
<path d="M15803 4045 c-104 -32 -195 -112 -246 -215 -30 -61 -32 -71 -32 -175
0 -100 2 -115 28 -167 76 -155 238 -250 401 -235 161 15 290 111 349 260 30
75 29 211 -2 290 -63 160 -208 258 -380 256 -42 0 -95 -6 -118 -14z m241 -75
c76 -29 139 -88 178 -168 29 -59 33 -76 33 -147 -1 -98 -29 -167 -96 -234 -69
-69 -136 -96 -239 -96 -73 1 -93 5 -143 30 -65 32 -124 91 -158 157 -17 32
-24 66 -27 130 -4 77 -2 92 22 145 42 91 125 166 216 194 51 15 158 10 214
-11z"/>
<path d="M15780 3660 l0 -240 35 0 35 0 0 90 0 90 38 0 c36 0 38 -2 87 -90
l50 -90 44 0 c43 0 43 0 29 23 -9 12 -34 53 -58 91 l-42 70 27 20 c54 39 72
138 37 206 -26 54 -69 70 -184 70 l-98 0 0 -240z m214 148 c25 -35 20 -94 -9
-123 -20 -21 -34 -25 -80 -25 l-55 0 0 85 0 85 64 0 c56 0 67 -3 80 -22z"/>
</g>
</svg>